<?xml version="1.0" standalone="no"?>
<!DOCTYPE svg PUBLIC "-//W3C//DTD SVG 20010904//EN"
 "http://www.w3.org/TR/2001/REC-SVG-20010904/DTD/svg10.dtd">
<svg version="1.0" xmlns="http://www.w3.org/2000/svg"
 width="260.000000pt" height="260.000000pt" viewBox="0 0 260.000000 260.000000"
 preserveAspectRatio="xMidYMid meet">
<metadata>
Created by potrace 1.14, written by Peter Selinger 2001-2017
</metadata>
<g transform="translate(0.000000,260.000000) scale(0.100000,-0.100000)"
fill="#000000" stroke="none">
<path d="M1264 2548 c-18 -29 -72 -127 -122 -218 -125 -229 -126 -230 -139
-230 -7 0 -63 20 -125 44 -265 103 -374 144 -393 148 -17 3 -20 -2 -17 -32 2
-34 72 -403 92 -485 7 -29 6 -43 -3 -52 -7 -6 -86 -36 -177 -67 -221 -75 -323
-111 -344 -123 -15 -8 -12 -14 27 -49 24 -21 57 -49 73 -62 253 -200 324 -259
324 -270 0 -8 -65 -122 -145 -255 -168 -279 -168 -254 5 -251 258 5 431 6 434
3 5 -5 34 -172 42 -233 2 -23 9 -66 14 -96 5 -30 12 -71 15 -90 3 -19 10 -59
15 -89 6 -30 10 -56 10 -58 0 -9 18 0 41 20 15 12 51 42 80 67 29 25 101 87
159 139 156 139 166 146 188 130 22 -18 151 -128 194 -167 77 -70 223 -192
230 -192 10 0 14 21 53 275 40 260 45 288 51 294 2 2 75 3 162 2 86 -2 210 -4
274 -5 64 -1 124 1 132 4 15 5 -9 52 -94 190 -86 141 -180 300 -180 308 0 13
43 50 235 204 94 74 178 145 189 157 23 25 71 5 -419 173 -103 36 -114 42
-109 66 28 125 105 552 100 552 -2 0 -131 -47 -151 -55 -103 -42 -379 -145
-388 -145 -12 0 -31 32 -118 190 -80 147 -103 188 -137 248 -20 34 -39 62 -42
62 -3 0 -19 -24 -36 -52z"/>
</g>
</svg>
